<?xml version="1.0" standalone="no"?><!DOCTYPE svg PUBLIC "-//W3C//DTD SVG 1.1//EN" "http://www.w3.org/Graphics/SVG/1.1/DTD/svg11.dtd"><svg t="1578245709048" class="icon" viewBox="0 0 1024 1024" version="1.1" xmlns="http://www.w3.org/2000/svg" p-id="1221" xmlns:xlink="http://www.w3.org/1999/xlink" width="200" height="200"><defs><style type="text/css"></style></defs><path d="M511.41 512m-448 0a448 448 0 1 0 896 0 448 448 0 1 0-896 0Z" fill="#298DF7" p-id="1222"></path><path d="M778.08 565.33H564.75v213.33c0 29.33-24 53.33-53.33 53.33s-53.33-24-53.33-53.33V565.33H244.75c-29.33 0-53.33-24-53.33-53.33s24-53.33 53.33-53.33h213.33V245.33c0-29.33 24-53.33 53.33-53.33s53.33 24 53.33 53.33v213.33h213.33c29.33 0 53.33 24 53.33 53.33 0.01 29.34-23.99 53.34-53.32 53.34z" fill="#FFFFFF" p-id="1223"></path></svg>